<?xml version="1.0" encoding="UTF-8" standalone="no"?>
<svg xmlns="http://www.w3.org/2000/svg" width="400" height="112" viewBox="0 0 400 112" fill="none">
  <path d="M400 56C400 87.48 375.48 112 344 112H0V0H344C375.48 0 400 24.52 400 56Z" fill="#00355E"/>
  <path d="M118.224 36.6431H110.306V74.9991H118.224V36.6431Z" fill="white"/>
  <path d="M85.0315 53.8228H94.5655C97.7735 53.8228 99.7095 52.1108 99.7095 49.0388C99.7095 45.9988 97.8055 44.1508 94.5655 44.1508H85.0315V53.8228ZM94.3295 60.5348H85.0315V74.9988H77.1135V36.6428H95.6455C102.982 36.6428 107.882 41.7508 107.882 48.6348C107.882 53.0468 105.594 56.6268 101.698 58.5068L109.904 74.9988H100.658L94.3295 60.5348Z" fill="white"/>
  <path d="M153.642 56.5908C153.642 45.8268 146.186 35.8348 133.734 35.8348C121.298 35.8348 113.826 45.8268 113.826 56.5908C113.826 67.3548 121.298 77.3468 133.734 77.3468C146.186 77.3468 153.642 67.3548 153.642 56.5908ZM132.992 70.1188C126.55 70.1188 122.622 64.0308 122.622 56.5908C122.622 49.1508 126.55 43.0308 132.992 43.0308C139.466 43.0308 145.338 48.8628 145.338 56.5908C145.338 64.3188 139.466 70.1188 132.992 70.1188Z" fill="white"/>
  <path d="M325.962 35.8348C314.174 35.8348 306.738 44.6588 306.738 56.5908C306.738 68.5228 314.174 77.3468 325.962 77.3468C332.278 77.3468 337.542 74.6988 340.894 69.9788L334.534 65.9068C332.214 69.0108 329.314 70.1188 325.962 70.1188C319.71 70.1188 315.086 64.9988 315.086 56.5908C315.086 48.1828 319.71 43.0308 325.962 43.0308C329.314 43.0308 332.214 44.1388 334.534 47.2748L340.894 43.1708C337.542 38.4828 332.278 35.8348 325.962 35.8348Z" fill="white"/>
  <path d="M215.24 55.4189H206.968V67.9989H215.24C219.352 67.9989 221.608 65.2629 221.608 61.7149C221.608 58.1669 219.352 55.4189 215.24 55.4189ZM216.556 43.4509H206.968V49.1909H216.556C219.384 49.1909 220.748 47.6269 220.748 46.3629C220.748 45.0829 219.384 43.4509 216.556 43.4509ZM214.048 36.3629C223.176 36.3629 229 40.3869 229 46.8029C229 50.5389 226.696 53.5269 222.936 54.5469C227.544 55.5589 229.896 58.9669 229.896 63.3669C229.896 70.3589 223.608 75.0469 214.048 75.0469H199.448V36.3629H214.048Z" fill="white"/>
  <path d="M167.5 67.6468H179.968C183.608 67.6468 185.728 65.0468 185.728 61.9868C185.728 58.9268 183.608 56.3268 179.968 56.3268H167.5V67.6468ZM167.5 44.1508V49.5108H177.848C181.168 49.5108 182.968 47.5748 182.968 46.8308C182.968 46.0868 181.168 44.1508 177.848 44.1508H167.5ZM177.416 36.6428C186.752 36.6428 191.112 41.6748 191.112 46.8308C191.112 49.7668 189.448 52.6228 186.576 54.1628C190.528 55.7348 193 58.7628 193 62.4228C193 69.3548 188.128 74.9988 178.504 74.9988H159.4V36.6428H177.416Z" fill="white"/>
  <path d="M242.92 53.8228H252.454C255.662 53.8228 257.598 52.1108 257.598 49.0388C257.598 45.9988 255.694 44.1508 252.454 44.1508H242.92V53.8228ZM252.218 60.5348H242.92V74.9988H235.002V36.6428H253.534C260.87 36.6428 265.77 41.7508 265.77 48.6348C265.77 53.0468 263.498 56.6268 259.586 58.5068L267.792 74.9988H258.546L252.218 60.5348Z" fill="white"/>
  <path d="M301.05 74.9988H292.99L291.21 70.1188H278.246L276.45 74.9988H268.406L281.086 36.6428H288.37L301.05 74.9988ZM279.994 63.4668H289.462L284.728 49.6268L279.994 63.4668Z" fill="white"/>
  <path fill-rule="evenodd" clip-rule="evenodd" d="M28.0941 30.4668V0.000806808H11.3138V111.999H28.0941V59.6888H68.7261V30.4668H28.0941Z" fill="#DA6F1E"/>
</svg>